# AST/ASF file generated using VICON BodyLanguage
# -----------------------------------------------
:version 1.10
:name VICON
:units
  mass 1.0
  length 0.45
  angle deg
:documentation
   .ast/.asf automatically generated from VICON data using
   VICON BodyBuilder and BodyLanguage model FoxedUp or BRILLIANT.MOD
:root
   order TX TY TZ RX RY RZ
   axis XYZ
   position 0 0 0  
   orientation 0 0 0 
:bonedata
  begin
     id 1 
     name lhipjoint
     direction 0.573633 -0.743009 0.344793 
     length 2.46257 
     axis 0 0 0  XYZ
  end
  begin
     id 2 
     name lfemur
     direction 0.34202 -0.939693 0  
     length 7.3842  
     axis 0 0 20  XYZ
    dof rx ry rz
    limits (-160.0 20.0)
           (-70.0 70.0)
           (-60.0 70.0)
  end
  begin
     id 3 
     name ltibia
     direction 0.34202 -0.939693 0   
     length 7.50407   
     axis 0 0 20   XYZ
    dof rx
    limits (-10.0 170.0)
  end
  begin
     id 4 
     name lfoot
     direction 0.110749 -0.304281 0.946123   
     length 1.95925   
     axis -90 7.62852e-016 20   XYZ
    dof rx rz
    limits (-45.0 90.0)
           (-70.0 20.0)
  end
  begin
     id 5 
     name ltoes
     direction 1.53554e-011 -4.21843e-011 1   
     length 0.978318   
     axis -90 7.62852e-016 20   XYZ
    dof rx
    limits (-90.0 20.0)
  end
  begin
     id 6 
     name rhipjoint
     direction -0.488109 -0.791693 0.367385   
     length 2.31113  
     axis 0 0 0  XYZ 
  end
  begin
     id 7 
     name rfemur
     direction -0.34202 -0.939693 0   
     length 7.40965   
     axis 0 0 -20   XYZ
    dof rx ry rz
    limits (-160.0 20.0)
           (-70.0 70.0)
           (-70.0 60.0)
  end
  begin
     id 8 
     name rtibia
     direction -0.34202 -0.939693 0   
     length 7.55548   
     axis 0 0 -20   XYZ
    dof rx
    limits (-10.0 170.0)
 end
 begin
     id 9 
     name rfoot
     direction -0.127594 -0.350561 0.927808   
     length 2.07199  
     axis -90 -7.62852e-016 -20   XYZ
    dof rx rz
    limits (-45.0 90.0)
           (-20.0 70.0)
  end
  begin
     id 10 
     name rtoes
     direction -1.53542e-011 -4.21909e-011 1   
     length 1.02667   
     axis -90 -7.62852e-016 -20   XYZ
    dof rx
    limits (-90.0 20.0)
  end
  begin
     id 11 
     name lowerback
     direction -0.0103342 0.997298 -0.0727278   
     length 2.02836   
     axis 0 0 0   XYZ
    dof rx ry rz
    limits (-20.0 45.0)
           (-30.0 30.0)
           (-30.0 30.0)
  end
  begin
     id 12 
     name upperback
     direction 0.0171146 0.999786 -0.011606   
     length 2.03179   
     axis 0 0 0   XYZ
    dof rx ry rz
    limits (-20.0 45.0)
           (-30.0 30.0)
           (-30.0 30.0)
  end
  begin
     id 13 
     name thorax
     direction 0.0216927 0.999513 0.0224343   
     length 2.03882   
     axis 0 0 0   XYZ
    dof rx ry rz
    limits (-20.0 45.0)
           (-30.0 30.0)
           (-30.0 30.0)
  end
  begin
     id 14 
     name lowerneck
     direction 0.000989287 0.993907 0.110221   
     length 1.75428   
     axis 0 0 0   XYZ
    dof rx ry rz
    limits (-20.0 45.0)
           (-30.0 30.0)
           (-30.0 30.0)
  end
  begin
     id 15 
     name upperneck
     direction -0.0172474 0.994813 -0.100253   
     length 1.77058   
     axis 0 0 0   XYZ
    dof rx ry rz
    limits (-20.0 45.0)
           (-30.0 30.0)
           (-30.0 30.0)
  end
  begin
     id 16
     name head
     direction -0.00486455 0.99894 -0.0457663  
     length 1.77427  
     axis 0 0 0   XYZ
    dof rx ry rz
    limits (-20.0 45.0)
           (-30.0 30.0)
           (-30.0 30.0)
  end
  begin
     id 17 
     name lclavicle
     direction 0.927314 0.333734 -0.169441  
     length 3.97584  
     axis 0 0 0   XYZ
    dof ry rz
    limits (-20.0 10.0)
           (0.0 20.0)
  end
  begin
     id 18 
     name lhumerus
     direction 1 -4.48965e-011 -3.25313e-028   
     length 4.76468   
     axis 180 -30 -90   XYZ
    dof rx ry rz
    limits (-60.0 90.0)
           (-90.0 90.0)
           (-90.0 90.0)
  end
  begin
     id 19
     name lradius
     direction 1 -4.48969e-011 -2.8465e-028   
     length 3.52712   
     axis -180 -30 -90   XYZ
    dof rx
    limits (-10.0 170.0)
  end
  begin
     id 20
     name lwrist
     direction 1 -4.4896e-011 -7.78665e-028   
     length 1.76356   
     axis 1.91374e-015 90 90   XYZ
    dof ry
    limits (-180.0 0.0)
 end
  begin
     id 21 
     name lhand
     direction 1 -4.48959e-011 -1.55733e-027   
     length 0.859564   
     axis 9.9371e-016 90 90   XYZ
    dof rx rz
    limits (-90.0 90.0)
           (-45.0 45.0)
  end
  begin
     id 22 
     name lfingers
     direction 1 -4.48965e-011 -3.11466e-027   
     length 0.693002   
     axis 1.98742e-015 90 90   XYZ
    dof rx
    limits (0.0 90.0)
  end
  begin
     id 23
     name lthumb
     direction 0.707107 -6.34948e-011 0.707107   
     length 0.995017   
     axis -90 45 2.85299e-015   XYZ
    dof rx rz
    limits (-45.0 45.0)
           (-45.0 45.0)
  end
  begin
     id 24 
     name rclavicle
     direction -0.899388 0.348209 -0.264294   
     length 3.68366  
     axis 0 0 0   XYZ 
    dof ry rz
    limits (-10.0 20.0)
           (-20.0 0.0)
  end
  begin
     id 25 
     name rhumerus
     direction -1 -4.48965e-011 -3.01536e-027  
     length 4.90577   
     axis 180 30 90   XYZ
    dof rx ry rz
    limits (-90.0 60.0)
           (-90.0 90.0)
           (-90.0 90.0)
  end
  begin
     id 26 
     name rradius
     direction -1 -4.48966e-011 3.93291e-027   
     length 3.42692   
     axis -180 30 90   XYZ
    dof rx
    limits (-10.0 170.0)
  end
  begin
     id 27 
     name rwrist
     direction -1 -4.48969e-011 -7.78665e-028   
     length 1.71346   
     axis 1.91374e-015 -90 -90   XYZ
    dof ry
    limits (-180.0 0.0)
  end
  begin
     id 28
     name rhand
     direction -1 -4.48967e-011 -1.55733e-027   
     length 0.740957   
     axis 9.9371e-016 -90 -90   XYZ
    dof rx rz
    limits (-90.0 90.0)
           (-45.0 45.0)
  end
  begin
     id 29
     name rfingers
     direction -1 -4.48949e-011 -3.11466e-027   
     length 0.597378   
     axis 1.98742e-015 -90 -90   XYZ
    dof rx
    limits (0.0 90.0)
  end
  begin
     id 30
     name rthumb
     direction -0.707107 -6.34931e-011 0.707107   
     length 0.857719   
     axis -90 -45 -2.85299e-015   XYZ
    dof rx rz
    limits (-45.0 45.0)
           (-45.0 45.0)
  end
:hierarchy
  begin
    root lhipjoint rhipjoint lowerback
    lhipjoint lfemur
    lfemur ltibia
    ltibia lfoot
    lfoot ltoes
    rhipjoint rfemur
    rfemur rtibia
    rtibia rfoot
    rfoot rtoes
    lowerback upperback
    upperback thorax
    thorax lowerneck lclavicle rclavicle
    lowerneck upperneck
    upperneck head
    lclavicle lhumerus
    lhumerus lradius
    lradius lwrist
    lwrist lhand lthumb
    lhand lfingers
    rclavicle rhumerus
    rhumerus rradius
    rradius rwrist
    rwrist rhand rthumb
    rhand rfingers
  end

#!OML:ASF E:\I on waltz\AllaLogoMonkeySwing\Project 1\Capture day 1\Session 1\Subject1.ASF
:FULLY-SPECIFIED
:DEGREES
319
root 0.326703 17.7236 -0.887957 183.513 56.2783 184.026
lowerback 10.1077 -2.05377 -1.82574
upperback 1.07515 -2.69336 3.04527
thorax -4.30971 -1.24003 4.57476
lowerneck -9.53953 -8.47889 -7.69765
upperneck 29.0447 -12.1919 9.68287
head 12.2512 -4.75361 3.36615
rclavicle -6.06293e-014 2.0276e-014
rhumerus -33.7487 -26.2532 -67.1405
rradius 28.5965
rwrist -0.582717
rhand -7.45123 -36.5876
rfingers 7.12502
rthumb 18.4368 -65.7339
lclavicle -6.06293e-014 2.0276e-014
lhumerus -41.5084 25.4943 80.4307
lradius 37.5733
lwrist -2.74816
lhand -6.48219 -14.4198
lfingers 7.12502
lthumb 19.3688 14.6355
rfemur -6.17508 19.2421 16.6887
rtibia 22.0764
rfoot -15.7925 33.4446
rtoes 31.5156
lfemur -9.49132 -17.9322 -6.5862
ltibia 19.691
lfoot -19.6779 -17.546
ltoes -31.9874
320
root 0.252241 17.7238 -1.02046 183.587 57.7979 183.795
lowerback 10.17 -2.29981 -2.08792
upperback 1.23034 -3.05046 3.02676
thorax -4.13654 -1.41832 4.74715
lowerneck -9.58483 -8.6542 -7.82125
upperneck 29.16 -12.4688 9.73015
head 12.3526 -4.89108 3.35983
rclavicle 5.92378e-014 -4.73108e-014
rhumerus -33.2403 -25.5838 -67.9642
rradius 28.8825
rwrist -0.833459
rhand -7.61575 -36.5773
rfingers 7.12502
rthumb 18.2785 -65.7385
lclavicle 5.92378e-014 -4.73108e-014
lhumerus -41.4098 25.6056 80.3684
lradius 36.0809
lwrist -3.70834
lhand -6.03986 -14.3517
lfingers 7.12502
lthumb 19.794 14.6604
rfemur -6.5335 19.605 15.6886
rtibia 21.7162
rfoot -15.5202 34.1113
rtoes 31.1114
lfemur -8.54811 -16.8598 -7.41699
ltibia 18.4143
lfoot -19.1298 -15.9168
ltoes -32.9778
321
root 0.180045 17.7357 -1.15056 183.483 59.1295 183.194
lowerback 10.105 -2.54913 -2.58235
upperback 1.28976 -3.44187 2.99402
thorax -3.97316 -1.61214 5.03539
lowerneck -9.38508 -8.7978 -7.95655
upperneck 29.1759 -12.7029 9.81518
head 12.3622 -5.01543 3.38375
rclavicle 5.42185e-014 -5.56597e-015
rhumerus -33.0663 -25.1238 -68.441
rradius 29.1877
rwrist -0.965771
rhand -7.69854 -36.4956
rfingers 7.12502
rthumb 18.1989 -65.6642
lclavicle 5.42185e-014 -5.56597e-015
lhumerus -41.2123 25.88 80.1962
lradius 34.2713
lwrist -5.40182
lhand -5.24279 -14.6973
lfingers 7.12502
lthumb 20.5601 14.2339
rfemur -6.98252 19.9169 14.4812
rtibia 21.2027
rfoot -15.2051 34.4528
rtoes 30.4656
lfemur -8.2931 -16.1253 -8.36106
ltibia 17.9108
lfoot -18.5591 -15.4413
ltoes -32.4111
322
root 0.110599 17.7571 -1.27583 183.219 60.3877 182.35
lowerback 10.042 -2.7528 -3.24129
upperback 1.2782 -3.7937 2.93928
thorax -3.87392 -1.78364 5.38979
lowerneck -9.24563 -8.94494 -7.97357
upperneck 29.31 -12.9419 9.81458
head 12.4173 -5.12996 3.3555
rclavicle -8.40859e-014 3.53837e-014
rhumerus -33.2806 -24.7295 -68.7254
rradius 29.63
rwrist -1.2009
rhand -7.57381 -36.5126
rfingers 7.12502
rthumb 18.3189 -65.67
lclavicle -8.40859e-014 3.53837e-014
lhumerus -40.9677 26.2315 79.8844
lradius 32.3084
lwrist -7.83205
lhand -4.33872 -14.9222
lfingers 7.12502
lthumb 21.4287 13.9127
rfemur -7.47461 20.3106 13.2054
rtibia 20.6639
rfoot -15.1503 34.3172
rtoes 29.0548
lfemur -8.20874 -15.5082 -9.3562
ltibia 17.495
lfoot -18.4212 -14.3653
ltoes -33.2392
323
root 0.0293784 17.7802 -1.37546 182.841 61.2611 181.253
lowerback 10.1954 -3.01643 -4.12833
upperback 1.1383 -4.25776 2.90393
thorax -3.98984 -1.99898 5.92707
lowerneck -9.22747 -9.09509 -7.94639
upperneck 29.5364 -13.1886 9.78888
head 12.5313 -5.23734 3.30639
rclavicle 3.69739e-014 -1.90833e-014
rhumerus -33.7035 -24.412 -68.9127
rradius 30.0166
rwrist -1.48319
rhand -7.57492 -36.7721
rfingers 7.12502
rthumb 18.3178 -65.9296
lclavicle 3.69739e-014 -1.90833e-014
lhumerus -40.7769 26.7698 79.315
lradius 30.4736
lwrist -10.918
lhand -2.41084 -13.6252
lfingers 7.12502
lthumb 23.2793 14.9875
rfemur -8.13814 20.4572 11.9079
rtibia 20.2258
rfoot -15.3008 33.5241
rtoes 27.5392
lfemur -8.62255 -14.5054 -10.2332
ltibia 17.3119
lfoot -18.1813 -14.3484
ltoes -32.7888
324
root -0.0390796 17.818 -1.50307 181.926 62.8398 179.864
lowerback 10.1918 -3.05711 -4.892
upperback 1.15363 -4.41158 2.73614
thorax -3.90701 -2.07119 6.19871
lowerneck -9.08175 -9.21225 -8.01175
upperneck 29.6211 -13.4023 9.89224
head 12.5757 -5.3352 3.32927
rclavicle -7.25564e-015 5.1684e-015
rhumerus -34.2064 -24.7033 -68.7993
rradius 30.0114
rwrist -1.35323
rhand -7.80863 -36.7918
rfingers 7.12502
rthumb 18.093 -65.9703
lclavicle -7.25564e-015 5.1684e-015
lhumerus -40.6296 27.141 78.7391
lradius 29.0536
lwrist -13.5277
lhand -0.29621 -13.1763
lfingers 7.12502
lthumb 25.3066 15.1649
rfemur -8.52129 20.7912 10.4855
rtibia 19.5874
rfoot -14.8183 32.8897
rtoes 27.3119
lfemur -8.19497 -13.6031 -11.4845
ltibia 16.575
lfoot -17.6928 -13.7154
ltoes -32.7906
